<svg width="439" height="369" viewBox="0 0 439 369" fill="none" xmlns="http://www.w3.org/2000/svg">
<g opacity="0.04" clip-path="url(#clip0_4444_3285)">
<path d="M158.086 -5.28816C185.058 -3.1568 205.195 20.4361 203.064 47.4081C200.933 74.38 177.34 94.5173 150.368 92.3859C123.396 90.2546 103.259 66.6617 105.39 39.6897C107.522 12.7177 131.114 -7.41953 158.086 -5.28816Z" fill="#9289D2"/>
<g clip-path="url(#clip1_4444_3285)">
<g clip-path="url(#clip2_4444_3285)">
<g clip-path="url(#clip3_4444_3285)">
<path fill-rule="evenodd" clip-rule="evenodd" d="M150.484 93.4197C122.992 91.2472 102.396 67.1168 104.568 39.6239C106.741 12.131 130.871 -8.46503 158.364 -6.2925C185.857 -4.11998 206.452 20.0104 204.28 47.5033C202.107 74.9962 177.977 95.5922 150.484 93.4197ZM157.839 0.349885C134.013 -1.53285 113.093 16.3235 111.21 40.1492C109.327 63.9749 127.184 84.8955 151.009 86.7782C174.835 88.6609 195.755 70.8046 197.638 46.9789C199.521 23.1532 181.665 2.23262 157.839 0.349885Z" fill="#9289D2"/>
</g>
<g clip-path="url(#clip4_4444_3285)">
<path fill-rule="evenodd" clip-rule="evenodd" d="M151.636 78.8371C132.184 77.3 117.611 60.2263 119.149 40.7747C120.686 21.3231 137.759 6.75017 157.211 8.28726C176.662 9.82436 191.235 26.898 189.698 46.3496C188.161 65.8012 171.087 80.3742 151.636 78.8371ZM156.734 14.3253C140.618 13.0518 126.465 25.1325 125.191 41.2481C123.918 57.3637 135.998 71.5175 152.114 72.7909C168.229 74.0644 182.383 61.9838 183.656 45.8682C184.93 29.7526 172.849 15.5988 156.734 14.3253Z" fill="white"/>
</g>
<path d="M153.286 57.9682C151.453 57.8233 150.08 56.2154 150.225 54.3818L151.976 32.2235C152.121 30.3899 153.729 29.0175 155.563 29.1624C157.396 29.3073 158.769 30.9152 158.624 32.7488L156.873 54.9071C156.728 56.7407 155.12 58.1131 153.286 57.9682Z" fill="white"/>
</g>
</g>
</g>
<g opacity="0.04" clip-path="url(#clip5_4444_3285)">
<g clip-path="url(#clip6_4444_3285)">
<g clip-path="url(#clip7_4444_3285)">
<path d="M404.877 182.32L334.303 192.805C329.438 193.527 324.893 190.159 324.17 185.293L313.686 114.719C312.963 109.854 316.332 105.309 321.197 104.587L391.771 94.1019C396.636 93.3791 401.181 96.7479 401.904 101.613L412.388 172.187C413.111 177.053 409.742 181.597 404.877 182.32Z" fill="#6AD2C0"/>
</g>
<path fill-rule="evenodd" clip-rule="evenodd" d="M361.297 131.743C357.883 132.25 355.517 135.441 356.024 138.855C356.531 142.27 359.722 144.631 363.136 144.124C366.55 143.617 368.912 140.43 368.405 137.016C367.898 133.602 364.711 131.235 361.297 131.743M360.379 125.568C367.208 124.553 373.566 129.267 374.581 136.099C375.595 142.927 370.882 149.285 364.054 150.3C357.221 151.315 350.863 146.601 349.849 139.773C348.834 132.941 353.547 126.583 360.379 125.568Z" fill="white"/>
<path d="M365.825 162.219C364.118 162.473 362.531 161.293 362.278 159.591L360.704 148.991C360.451 147.289 361.626 145.698 363.333 145.445C365.04 145.191 366.626 146.371 366.879 148.074L368.454 158.673C368.707 160.376 367.532 161.966 365.825 162.219Z" fill="white"/>
</g>
</g>
<g opacity="0.04" clip-path="url(#clip8_4444_3285)">
<rect x="64.39" y="270.042" width="181.197" height="98.8347" transform="rotate(3.92676 64.39 270.042)" fill="#F8B990"/>
<g clip-path="url(#clip9_4444_3285)">
<rect x="68.3383" y="212.522" width="181.197" height="57.6536" transform="rotate(3.92676 68.3383 212.522)" fill="white"/>
<g clip-path="url(#clip10_4444_3285)">
<g clip-path="url(#clip11_4444_3285)">
<path fill-rule="evenodd" clip-rule="evenodd" d="M228.356 390.881L65.173 379.68C53.9237 378.908 45.3988 369.194 46.1664 358.012L55.2042 226.347C55.9711 215.174 65.744 206.707 76.9933 207.479L240.176 218.68C251.425 219.452 259.949 229.176 259.182 240.348L250.145 372.014C249.377 383.196 239.605 391.654 228.356 390.881ZM76.0191 221.666C72.6432 221.434 69.7128 223.971 69.4827 227.323L60.4448 358.989C60.2147 362.341 62.7703 365.265 66.1463 365.496L229.329 376.698C232.705 376.929 235.636 374.383 235.866 371.03L244.904 239.364C245.134 236.012 242.577 233.099 239.202 232.867L76.0191 221.666Z" fill="#F8B990"/>
</g>
<path d="M117.689 242.885C113.413 242.591 110.193 238.885 110.486 234.62L112.715 202.149C113.008 197.873 116.704 194.652 120.979 194.946C125.255 195.239 128.476 198.935 128.182 203.211L125.953 235.682C125.661 239.946 121.964 243.178 117.689 242.885Z" fill="#F8B990"/>
<path d="M195.026 248.193C190.75 247.899 187.53 244.193 187.823 239.928L190.052 207.457C190.345 203.181 194.041 199.96 198.317 200.254C202.592 200.547 205.813 204.243 205.519 208.519L203.291 240.99C202.998 245.254 199.302 248.486 195.026 248.193Z" fill="#F8B990"/>
<rect x="58.1746" y="263.928" width="193.384" height="15.5084" transform="rotate(3.92676 58.1746 263.928)" fill="#F8B990"/>
</g>
</g>
</g>
<defs>
<clipPath id="clip0_4444_3285">
<rect width="145" height="145" fill="white" transform="translate(86.8438 -34) rotate(4.51822)"/>
</clipPath>
<clipPath id="clip1_4444_3285">
<rect width="144.339" height="144.339" fill="white" transform="translate(86.8425 -34) rotate(4.51822)"/>
</clipPath>
<clipPath id="clip2_4444_3285">
<rect width="100.847" height="101.594" fill="white" transform="translate(107.766 -10.2936) rotate(4.51822)"/>
</clipPath>
<clipPath id="clip3_4444_3285">
<rect width="100.847" height="101.594" fill="white" transform="translate(107.766 -10.2928) rotate(4.51822)"/>
</clipPath>
<clipPath id="clip4_4444_3285">
<rect width="71.3093" height="72.7837" fill="white" transform="translate(121.557 3.44608) rotate(4.51822)"/>
</clipPath>
<clipPath id="clip5_4444_3285">
<rect width="135" height="135" fill="white" transform="translate(285.048 86.8047) rotate(-8.4502)"/>
</clipPath>
<clipPath id="clip6_4444_3285">
<rect width="89.1863" height="89.1862" fill="white" transform="translate(312.375 105.895) rotate(-8.4502)"/>
</clipPath>
<clipPath id="clip7_4444_3285">
<rect width="89.1863" height="89.1862" fill="white" transform="translate(312.375 105.896) rotate(-8.4502)"/>
</clipPath>
<clipPath id="clip8_4444_3285">
<rect width="288" height="288" fill="white" transform="translate(19.7226 139.014) rotate(3.92676)"/>
</clipPath>
<clipPath id="clip9_4444_3285">
<rect width="288.268" height="288.268" fill="white" transform="translate(19.7227 139.013) rotate(3.92676)"/>
</clipPath>
<clipPath id="clip10_4444_3285">
<rect width="204.458" height="188.124" fill="white" transform="translate(57.6581 190.602) rotate(3.92676)"/>
</clipPath>
<clipPath id="clip11_4444_3285">
<rect width="204.458" height="172.607" fill="white" transform="translate(56.5957 206.08) rotate(3.92676)"/>
</clipPath>
</defs>
</svg>
