<svg width="498" height="369" viewBox="0 0 498 369" fill="none" xmlns="http://www.w3.org/2000/svg">
<g opacity="0.04" clip-path="url(#clip0_4444_3232)">
<circle cx="175.883" cy="317.55" r="71.3902" transform="rotate(-4.06243 175.883 317.55)" fill="#BBE17B"/>
<g clip-path="url(#clip1_4444_3232)">
<g clip-path="url(#clip2_4444_3232)">
<ellipse cx="173.036" cy="313.891" rx="51.3283" ry="51.3285" transform="rotate(-4.06243 173.036 313.891)" fill="white"/>
</g>
<path fill-rule="evenodd" clip-rule="evenodd" d="M173.135 287.328C183.485 286.593 192.504 294.415 193.239 304.766C193.974 315.116 186.152 324.135 175.801 324.87C165.451 325.605 156.432 317.782 155.697 307.432C154.962 297.082 162.785 288.063 173.135 287.328ZM176.393 333.197C191.009 332.159 204.18 341.604 207.859 355.702C199.478 362.285 189.434 366.161 178.788 366.917C168.142 367.673 157.65 365.255 148.423 359.924C150.073 345.447 161.777 334.235 176.393 333.197ZM202.378 333C199.142 330.464 195.558 328.476 191.71 327.082C198.523 321.476 202.193 312.996 201.567 304.178C200.505 289.236 187.486 277.943 172.543 279.005C157.602 280.066 146.309 293.085 147.37 308.027C147.996 316.845 152.828 324.721 160.364 329.308C156.75 331.233 153.482 333.707 150.639 336.674C145.813 341.708 142.452 347.908 140.88 354.658C129.784 345.392 122.859 331.913 121.837 317.524C119.755 288.204 141.914 262.656 171.234 260.574C200.554 258.491 226.102 280.651 228.184 309.971C229.206 324.36 224.256 338.683 214.581 349.425C212.071 342.964 207.867 337.301 202.378 333Z" fill="#BBE17B"/>
</g>
</g>
<g opacity="0.04" clip-path="url(#clip3_4444_3232)">
<rect x="251.829" y="-8.61179" width="160" height="201.6" rx="16.9082" transform="rotate(-5.71917 251.829 -8.61179)" fill="#6B9CB2"/>
<rect x="300.568" y="40.7645" width="75.6809" height="14.3972" rx="7.19862" transform="rotate(-5.71917 300.568 40.7645)" fill="white"/>
<rect x="304.481" y="79.8351" width="75.6809" height="14.3972" rx="7.19862" transform="rotate(-5.71917 304.481 79.8351)" fill="white"/>
<rect x="308.394" y="118.906" width="75.6809" height="14.3972" rx="7.19862" transform="rotate(-5.71917 308.394 118.906)" fill="white"/>
</g>
<g opacity="0.04" clip-path="url(#clip4_4444_3232)">
<g clip-path="url(#clip5_4444_3232)">
<g clip-path="url(#clip6_4444_3232)">
<g clip-path="url(#clip7_4444_3232)">
<path d="M92.3756 173.778L81.8304 160.085L37.1753 154.421C31.972 153.544 28.4613 148.606 29.3381 143.403L36.8654 84.052C37.3158 78.7901 41.9437 74.8845 47.2079 75.3166L119.914 84.5377C125.119 85.4334 128.626 90.3706 127.748 95.5784L120.221 154.929C119.771 160.187 115.139 164.092 109.881 163.642L102.043 162.648L100.5 174.808C100.107 176.268 98.6247 177.147 97.1517 176.784C95.2331 176.44 93.518 175.363 92.3756 173.778Z" fill="#EB7C7C"/>
<path d="M97.1551 176.789C95.5647 176.588 93.7331 175.557 92.3745 173.782L81.8292 160.089L37.1696 154.425C32.1529 153.789 28.6449 148.865 29.3376 143.403L36.8643 84.0565C37.5565 78.599 42.1854 74.6843 47.2021 75.3205L119.917 84.5428C124.934 85.179 128.439 90.1254 127.747 95.5829L120.22 154.929C119.528 160.392 114.901 164.284 109.885 163.647L102.046 162.653L100.504 174.813C100.104 176.365 98.7501 176.992 97.1551 176.789Z" fill="#EB7C7C"/>
</g>
<path d="M75.3405 111.463L59.0453 109.396C57.2868 109.173 56.0454 107.566 56.2678 105.812C56.4909 104.054 58.0937 102.812 59.8522 103.035L76.1474 105.101C77.9059 105.324 79.1479 106.927 78.9248 108.686C78.7024 110.44 77.0991 111.686 75.3405 111.463Z" fill="#EB7C7C"/>
</g>
<path d="M75.3405 111.464L59.0453 109.397C57.2868 109.174 56.0454 107.567 56.2678 105.813C56.4909 104.054 58.0937 102.812 59.8522 103.035L76.1474 105.102C77.9059 105.325 79.1479 106.928 78.9248 108.686C78.7024 110.44 77.0991 111.687 75.3405 111.464Z" fill="white" stroke="white" stroke-width="1.12721"/>
<path d="M84.8892 130.898L56.7701 127.332C55.0116 127.109 53.7701 125.502 53.9926 123.748C54.2156 121.989 55.819 120.743 57.5775 120.966L85.6966 124.532C87.4551 124.755 88.701 126.363 88.478 128.121C88.2555 129.875 86.6477 131.121 84.8892 130.898Z" fill="white" stroke="white" stroke-width="1.12721"/>
</g>
</g>
<defs>
<clipPath id="clip0_4444_3232">
<rect width="210" height="210" fill="white" transform="translate(59.739 220.319) rotate(-4.06243)"/>
</clipPath>
<clipPath id="clip1_4444_3232">
<rect width="106.615" height="106.615" fill="white" transform="translate(118.061 264.351) rotate(-4.06243)"/>
</clipPath>
<clipPath id="clip2_4444_3232">
<rect width="102.657" height="102.657" fill="white" transform="translate(118.201 266.327) rotate(-4.06243)"/>
</clipPath>
<clipPath id="clip3_4444_3232">
<rect width="280" height="280" fill="white" transform="translate(191.058 -41.9214) rotate(-5.71917)"/>
</clipPath>
<clipPath id="clip4_4444_3232">
<rect width="140" height="140" fill="white" transform="translate(17.6165 46.4941) rotate(7.22805)"/>
</clipPath>
<clipPath id="clip5_4444_3232">
<rect width="91.6269" height="94.3963" fill="white" transform="translate(38.1115 74.1653) rotate(7.22805)"/>
</clipPath>
<clipPath id="clip6_4444_3232">
<rect width="91.6269" height="94.3963" fill="white" transform="translate(38.1115 74.1646) rotate(7.22805)"/>
</clipPath>
<clipPath id="clip7_4444_3232">
<rect width="91.6269" height="94.3963" fill="white" transform="translate(38.1115 74.1638) rotate(7.22805)"/>
</clipPath>
</defs>
</svg>
