<svg xmlns="http://www.w3.org/2000/svg" width="63" height="63" viewBox="0 0 63 63">
  <defs>
    <style>
      .cls-1 {
        fill: none;
      }

      .cls-2 {
        fill: #f8b990;
      }
    </style>
  </defs>
  <g id="스케줄_관리" data-name="스케줄 관리" transform="translate(4835 23878.611)">
    <rect id="사각형_3089" data-name="사각형 3089" class="cls-1" width="63" height="63" transform="translate(-4835 -23878.611)"/>
    <g id="그룹_13730" data-name="그룹 13730" transform="translate(-4826 -23867.611)">
      <path id="합치기_104" data-name="합치기 104" class="cls-2" d="M0,22.992V0H43.314V22.992Z" transform="translate(0.695 16.113)"/>
      <g id="그룹_5141" data-name="그룹 5141">
        <g id="사각형_2837" data-name="사각형 2837" transform="translate(0 3.419)">
          <rect id="사각형_3110" data-name="사각형 3110" class="cls-1" width="45.058" height="38.037" rx="2" transform="translate(0 0.002)"/>
          <path id="패스_2228" data-name="패스 2228" class="cls-2" d="M107.053,42.739H71.006A4.5,4.5,0,0,1,66.5,38.262V9.177A4.5,4.5,0,0,1,71.006,4.7h36.047a4.5,4.5,0,0,1,4.506,4.477V38.262A4.5,4.5,0,0,1,107.053,42.739ZM71.006,7.835a1.348,1.348,0,0,0-1.352,1.342V38.262a1.35,1.35,0,0,0,1.352,1.345h36.047a1.35,1.35,0,0,0,1.352-1.345V9.177a1.348,1.348,0,0,0-1.352-1.342Z" transform="translate(-66.5 -4.7)"/>
        </g>
        <g id="그룹_5140" data-name="그룹 5140" transform="translate(12.279)">
          <path id="패스_2229" data-name="패스 2229" class="cls-2" d="M74.008,13.889A1.709,1.709,0,0,1,72.3,12.18V5.007a1.708,1.708,0,1,1,3.417,0V12.18A1.709,1.709,0,0,1,74.008,13.889Z" transform="translate(-72.3 -3.299)"/>
          <path id="패스_2230" data-name="패스 2230" class="cls-2" d="M81.008,13.889A1.709,1.709,0,0,1,79.3,12.18V5.007a1.708,1.708,0,1,1,3.417,0V12.18A1.709,1.709,0,0,1,81.008,13.889Z" transform="translate(-62.216 -3.299)"/>
        </g>
      </g>
    </g>
  </g>
</svg>
